<svg width="1480" height="810" xmlns="http://www.w3.org/2000/svg" xmlns:xlink="http://www.w3.org/1999/xlink"><rect x="0" y="0" width="1480" height="810" rx="5" ry="5" style="fill:#282d35"/><circle cx="20" cy="20" r="7" style="fill:#ff5f58"/><circle cx="43" cy="20" r="7" style="fill:#ffbd2e"/><circle cx="66" cy="20" r="7" style="fill:#18c132"/><g transform="translate(20,60)"><g style="animation-duration:71.39s;animation-iteration-count:infinite;animation-name:k;animation-timing-function:steps(1,end);font-family:Monaco,Consolas,Menlo,'Bitstream Vera Sans Mono','Powerline Symbols',monospace;font-size:20px"><style>@keyframes k {7.211%{transform:translateX(-0px)}7.833%{transform:translateX(-1480px)}8.470%{transform:translateX(-2960px)}8.803%{transform:translateX(-4440px)}9.348%{transform:translateX(-5920px)}9.896%{transform:translateX(-7400px)}10.042%{transform:translateX(-8880px)}10.457%{transform:translateX(-10360px)}10.750%{transform:translateX(-11840px)}11.977%{transform:translateX(-13320px)}12.147%{transform:translateX(-14800px)}12.322%{transform:translateX(-16280px)}12.487%{transform:translateX(-17760px)}12.659%{transform:translateX(-19240px)}71.172%{transform:translateX(-20720px)}71.794%{transform:translateX(-22200px)}72.583%{transform:translateX(-23680px)}72.829%{transform:translateX(-25160px)}73.583%{transform:translateX(-26640px)}74.354%{transform:translateX(-28120px)}74.693%{transform:translateX(-29600px)}74.848%{transform:translateX(-31080px)}75.662%{transform:translateX(-32560px)}75.829%{transform:translateX(-34040px)}76.344%{transform:translateX(-35520px)}76.979%{transform:translateX(-37000px)}77.808%{transform:translateX(-38480px)}77.825%{transform:translateX(-39960px)}83.085%{transform:translateX(-41440px)}83.995%{transform:translateX(-42920px)}84.570%{transform:translateX(-44400px)}85.747%{transform:translateX(-45880px)}86.457%{transform:translateX(-47360px)}87.216%{transform:translateX(-48840px)}87.951%{transform:translateX(-50320px)}88.159%{transform:translateX(-51800px)}88.786%{transform:translateX(-53280px)}88.949%{transform:translateX(-54760px)}89.310%{transform:translateX(-56240px)}89.536%{transform:translateX(-57720px)}90.574%{transform:translateX(-59200px)}90.799%{transform:translateX(-60680px)}91.083%{transform:translateX(-62160px)}91.227%{transform:translateX(-63640px)}91.935%{transform:translateX(-65120px)}92.068%{transform:translateX(-66600px)}92.453%{transform:translateX(-68080px)}93.158%{transform:translateX(-69560px)}93.763%{transform:translateX(-71040px)}93.879%{transform:translateX(-72520px)}94.819%{transform:translateX(-74000px)}95.086%{transform:translateX(-75480px)}96.062%{transform:translateX(-76960px)}96.255%{transform:translateX(-78440px)}100.000%{transform:translateX(-79920px)}}.a{fill:#e5e5e5}</style><g transform="translate(0)"><text x="0" y="0" class="a">s</text></g><g transform="translate(1480)"><text x="0" y="0" class="a">sh</text></g><g transform="translate(2960)"><text x="0" y="0" class="a">sho</text></g><g transform="translate(4440)"><text x="0" y="0" class="a">shot</text></g><g transform="translate(5920)"><text x="0" y="0" class="a">shotr</text></g><g transform="translate(7400)"><text x="0" y="0" class="a">shot</text></g><g transform="translate(8880)"><text x="0" y="0" class="a">sho</text></g><g transform="translate(10360)"><text x="0" y="0" class="a">shor</text></g><g transform="translate(11840)"><text x="0" y="0" class="a">shory</text></g><g transform="translate(13320)"><text x="0" y="0" class="a">shor</text></g><g transform="translate(14800)"><text x="0" y="0" class="a">sho</text></g><g transform="translate(16280)"><text x="0" y="0" class="a">sh</text></g><g transform="translate(17760)"><text x="0" y="0" class="a">s</text></g><g transform="translate(19240)"/><g transform="translate(20720)"><text x="0" y="0" class="a">s</text></g><g transform="translate(22200)"><text x="0" y="0" class="a">sh</text></g><g transform="translate(23680)"><text x="0" y="0" class="a">sho</text></g><g transform="translate(25160)"><text x="0" y="0" class="a">shor</text></g><g transform="translate(26640)"><text x="0" y="0" class="a">shory</text></g><g transform="translate(28120)"><text x="0" y="0" class="a">shory</text></g><g transform="translate(29600)"><text x="0" y="0" class="a">shory</text><text x="72" y="0" class="a">-</text></g><g transform="translate(31080)"><text x="0" y="0" class="a">shory</text><text x="72" y="0" class="a">--</text></g><g transform="translate(32560)"><text x="0" y="0" class="a">shory</text><text x="72" y="0" class="a">--h</text></g><g transform="translate(34040)"><text x="0" y="0" class="a">shory</text><text x="72" y="0" class="a">--he</text></g><g transform="translate(35520)"><text x="0" y="0" class="a">shory</text><text x="72" y="0" class="a">--hel</text></g><g transform="translate(37000)"><text x="0" y="0" class="a">shory</text><text x="72" y="0" class="a">--help</text></g><g transform="translate(38480)"><text x="0" y="0" class="a">shory</text><text x="72" y="0" class="a">--help</text></g><g transform="translate(39960)"><text x="0" y="0" class="a">shory</text><text x="72" y="0" class="a">--help</text><text x="0" y="25" class="a">/bin/sh:</text><text x="108" y="25" class="a">1:</text><text x="144" y="25" class="a">shory:</text><text x="228" y="25" class="a">not</text><text x="276" y="25" class="a">found</text></g><g transform="translate(41440)"><text x="0" y="0" class="a">shory</text><text x="72" y="0" class="a">--help</text><text x="0" y="25" class="a">/bin/sh:</text><text x="108" y="25" class="a">1:</text><text x="144" y="25" class="a">shory:</text><text x="228" y="25" class="a">not</text><text x="276" y="25" class="a">found</text><text x="0" y="50" class="a">s</text></g><g transform="translate(42920)"><text x="0" y="0" class="a">shory</text><text x="72" y="0" class="a">--help</text><text x="0" y="25" class="a">/bin/sh:</text><text x="108" y="25" class="a">1:</text><text x="144" y="25" class="a">shory:</text><text x="228" y="25" class="a">not</text><text x="276" y="25" class="a">found</text><text x="0" y="50" class="a">sh</text></g><g transform="translate(44400)"><text x="0" y="0" class="a">shory</text><text x="72" y="0" class="a">--help</text><text x="0" y="25" class="a">/bin/sh:</text><text x="108" y="25" class="a">1:</text><text x="144" y="25" class="a">shory:</text><text x="228" y="25" class="a">not</text><text x="276" y="25" class="a">found</text><text x="0" y="50" class="a">sho</text></g><g transform="translate(45880)"><text x="0" y="0" class="a">shory</text><text x="72" y="0" class="a">--help</text><text x="0" y="25" class="a">/bin/sh:</text><text x="108" y="25" class="a">1:</text><text x="144" y="25" class="a">shory:</text><text x="228" y="25" class="a">not</text><text x="276" y="25" class="a">found</text><text x="0" y="50" class="a">shor</text></g><g transform="translate(47360)"><text x="0" y="0" class="a">shory</text><text x="72" y="0" class="a">--help</text><text x="0" y="25" class="a">/bin/sh:</text><text x="108" y="25" class="a">1:</text><text x="144" y="25" class="a">shory:</text><text x="228" y="25" class="a">not</text><text x="276" y="25" class="a">found</text><text x="0" y="50" class="a">short</text></g><g transform="translate(48840)"><text x="0" y="0" class="a">shory</text><text x="72" y="0" class="a">--help</text><text x="0" y="25" class="a">/bin/sh:</text><text x="108" y="25" class="a">1:</text><text x="144" y="25" class="a">shory:</text><text x="228" y="25" class="a">not</text><text x="276" y="25" class="a">found</text><text x="0" y="50" class="a">short</text></g><g transform="translate(50320)"><text x="0" y="0" class="a">shory</text><text x="72" y="0" class="a">--help</text><text x="0" y="25" class="a">/bin/sh:</text><text x="108" y="25" class="a">1:</text><text x="144" y="25" class="a">shory:</text><text x="228" y="25" class="a">not</text><text x="276" y="25" class="a">found</text><text x="0" y="50" class="a">short</text><text x="72" y="50" class="a">0</text></g><g transform="translate(51800)"><text x="0" y="0" class="a">shory</text><text x="72" y="0" class="a">--help</text><text x="0" y="25" class="a">/bin/sh:</text><text x="108" y="25" class="a">1:</text><text x="144" y="25" class="a">shory:</text><text x="228" y="25" class="a">not</text><text x="276" y="25" class="a">found</text><text x="0" y="50" class="a">short</text><text x="72" y="50" class="a">00</text></g><g transform="translate(53280)"><text x="0" y="0" class="a">shory</text><text x="72" y="0" class="a">--help</text><text x="0" y="25" class="a">/bin/sh:</text><text x="108" y="25" class="a">1:</text><text x="144" y="25" class="a">shory:</text><text x="228" y="25" class="a">not</text><text x="276" y="25" class="a">found</text><text x="0" y="50" class="a">short</text><text x="72" y="50" class="a">0</text></g><g transform="translate(54760)"><text x="0" y="0" class="a">shory</text><text x="72" y="0" class="a">--help</text><text x="0" y="25" class="a">/bin/sh:</text><text x="108" y="25" class="a">1:</text><text x="144" y="25" class="a">shory:</text><text x="228" y="25" class="a">not</text><text x="276" y="25" class="a">found</text><text x="0" y="50" class="a">short</text></g><g transform="translate(56240)"><text x="0" y="0" class="a">shory</text><text x="72" y="0" class="a">--help</text><text x="0" y="25" class="a">/bin/sh:</text><text x="108" y="25" class="a">1:</text><text x="144" y="25" class="a">shory:</text><text x="228" y="25" class="a">not</text><text x="276" y="25" class="a">found</text><text x="0" y="50" class="a">short</text><text x="72" y="50" class="a">0</text></g><g transform="translate(57720)"><text x="0" y="0" class="a">shory</text><text x="72" y="0" class="a">--help</text><text x="0" y="25" class="a">/bin/sh:</text><text x="108" y="25" class="a">1:</text><text x="144" y="25" class="a">shory:</text><text x="228" y="25" class="a">not</text><text x="276" y="25" class="a">found</text><text x="0" y="50" class="a">short</text><text x="72" y="50" class="a">00</text></g><g transform="translate(59200)"><text x="0" y="0" class="a">shory</text><text x="72" y="0" class="a">--help</text><text x="0" y="25" class="a">/bin/sh:</text><text x="108" y="25" class="a">1:</text><text x="144" y="25" class="a">shory:</text><text x="228" y="25" class="a">not</text><text x="276" y="25" class="a">found</text><text x="0" y="50" class="a">short</text><text x="72" y="50" class="a">0</text></g><g transform="translate(60680)"><text x="0" y="0" class="a">shory</text><text x="72" y="0" class="a">--help</text><text x="0" y="25" class="a">/bin/sh:</text><text x="108" y="25" class="a">1:</text><text x="144" y="25" class="a">shory:</text><text x="228" y="25" class="a">not</text><text x="276" y="25" class="a">found</text><text x="0" y="50" class="a">short</text></g><g transform="translate(62160)"><text x="0" y="0" class="a">shory</text><text x="72" y="0" class="a">--help</text><text x="0" y="25" class="a">/bin/sh:</text><text x="108" y="25" class="a">1:</text><text x="144" y="25" class="a">shory:</text><text x="228" y="25" class="a">not</text><text x="276" y="25" class="a">found</text><text x="0" y="50" class="a">short</text><text x="72" y="50" class="a">-</text></g><g transform="translate(63640)"><text x="0" y="0" class="a">shory</text><text x="72" y="0" class="a">--help</text><text x="0" y="25" class="a">/bin/sh:</text><text x="108" y="25" class="a">1:</text><text x="144" y="25" class="a">shory:</text><text x="228" y="25" class="a">not</text><text x="276" y="25" class="a">found</text><text x="0" y="50" class="a">short</text><text x="72" y="50" class="a">--</text></g><g transform="translate(65120)"><text x="0" y="0" class="a">shory</text><text x="72" y="0" class="a">--help</text><text x="0" y="25" class="a">/bin/sh:</text><text x="108" y="25" class="a">1:</text><text x="144" y="25" class="a">shory:</text><text x="228" y="25" class="a">not</text><text x="276" y="25" class="a">found</text><text x="0" y="50" class="a">short</text><text x="72" y="50" class="a">--g</text></g><g transform="translate(66600)"><text x="0" y="0" class="a">shory</text><text x="72" y="0" class="a">--help</text><text x="0" y="25" class="a">/bin/sh:</text><text x="108" y="25" class="a">1:</text><text x="144" y="25" class="a">shory:</text><text x="228" y="25" class="a">not</text><text x="276" y="25" class="a">found</text><text x="0" y="50" class="a">short</text><text x="72" y="50" class="a">--ge</text></g><g transform="translate(68080)"><text x="0" y="0" class="a">shory</text><text x="72" y="0" class="a">--help</text><text x="0" y="25" class="a">/bin/sh:</text><text x="108" y="25" class="a">1:</text><text x="144" y="25" class="a">shory:</text><text x="228" y="25" class="a">not</text><text x="276" y="25" class="a">found</text><text x="0" y="50" class="a">short</text><text x="72" y="50" class="a">--g</text></g><g transform="translate(69560)"><text x="0" y="0" class="a">shory</text><text x="72" y="0" class="a">--help</text><text x="0" y="25" class="a">/bin/sh:</text><text x="108" y="25" class="a">1:</text><text x="144" y="25" class="a">shory:</text><text x="228" y="25" class="a">not</text><text x="276" y="25" class="a">found</text><text x="0" y="50" class="a">short</text><text x="72" y="50" class="a">--</text></g><g transform="translate(71040)"><text x="0" y="0" class="a">shory</text><text x="72" y="0" class="a">--help</text><text x="0" y="25" class="a">/bin/sh:</text><text x="108" y="25" class="a">1:</text><text x="144" y="25" class="a">shory:</text><text x="228" y="25" class="a">not</text><text x="276" y="25" class="a">found</text><text x="0" y="50" class="a">short</text><text x="72" y="50" class="a">--h</text></g><g transform="translate(72520)"><text x="0" y="0" class="a">shory</text><text x="72" y="0" class="a">--help</text><text x="0" y="25" class="a">/bin/sh:</text><text x="108" y="25" class="a">1:</text><text x="144" y="25" class="a">shory:</text><text x="228" y="25" class="a">not</text><text x="276" y="25" class="a">found</text><text x="0" y="50" class="a">short</text><text x="72" y="50" class="a">--he</text></g><g transform="translate(74000)"><text x="0" y="0" class="a">shory</text><text x="72" y="0" class="a">--help</text><text x="0" y="25" class="a">/bin/sh:</text><text x="108" y="25" class="a">1:</text><text x="144" y="25" class="a">shory:</text><text x="228" y="25" class="a">not</text><text x="276" y="25" class="a">found</text><text x="0" y="50" class="a">short</text><text x="72" y="50" class="a">--hel</text></g><g transform="translate(75480)"><text x="0" y="0" class="a">shory</text><text x="72" y="0" class="a">--help</text><text x="0" y="25" class="a">/bin/sh:</text><text x="108" y="25" class="a">1:</text><text x="144" y="25" class="a">shory:</text><text x="228" y="25" class="a">not</text><text x="276" y="25" class="a">found</text><text x="0" y="50" class="a">short</text><text x="72" y="50" class="a">--help</text></g><g transform="translate(76960)"><text x="0" y="0" class="a">shory</text><text x="72" y="0" class="a">--help</text><text x="0" y="25" class="a">/bin/sh:</text><text x="108" y="25" class="a">1:</text><text x="144" y="25" class="a">shory:</text><text x="228" y="25" class="a">not</text><text x="276" y="25" class="a">found</text><text x="0" y="50" class="a">short</text><text x="72" y="50" class="a">--help</text></g><g transform="translate(78440)"><text x="0" y="0" class="a">shory</text><text x="72" y="0" class="a">--help</text><text x="0" y="25" class="a">/bin/sh:</text><text x="108" y="25" class="a">1:</text><text x="144" y="25" class="a">shory:</text><text x="228" y="25" class="a">not</text><text x="276" y="25" class="a">found</text><text x="0" y="50" class="a">short</text><text x="72" y="50" class="a">--help</text><text x="0" y="75" class="a">Usage:</text><text x="84" y="75" class="a">short</text><text x="156" y="75" class="a">[options]</text><text x="276" y="75" class="a">[command]</text><text x="0" y="125" class="a">A</text><text x="24" y="125" class="a">community-driven</text><text x="228" y="125" class="a">command</text><text x="324" y="125" class="a">line</text><text x="384" y="125" class="a">tool</text><text x="444" y="125" class="a">for</text><text x="492" y="125" class="a">viewing,</text><text x="600" y="125" class="a">creating,</text><text x="720" y="125" class="a">and</text><text x="768" y="125" class="a">updating</text><text x="876" y="125" class="a">shortcut.com</text><text x="1032" y="125" class="a">stories</text><text x="0" y="175" class="a">Options:</text><text x="24" y="200" class="a">-V,</text><text x="72" y="200" class="a">--version</text><text x="384" y="200" class="a">output</text><text x="468" y="200" class="a">the</text><text x="516" y="200" class="a">version</text><text x="612" y="200" class="a">number</text><text x="24" y="225" class="a">-h,</text><text x="72" y="225" class="a">--help</text><text x="384" y="225" class="a">output</text><text x="468" y="225" class="a">usage</text><text x="540" y="225" class="a">information</text><text x="0" y="275" class="a">Commands:</text><text x="24" y="300" class="a">install</text><text x="120" y="300" class="a">[options]</text><text x="384" y="300" class="a">install</text><text x="480" y="300" class="a">and</text><text x="528" y="300" class="a">configure</text><text x="648" y="300" class="a">API</text><text x="696" y="300" class="a">access</text><text x="24" y="325" class="a">search|s</text><text x="132" y="325" class="a">[options]</text><text x="252" y="325" class="a">[SEARC]</text><text x="384" y="325" class="a">search</text><text x="468" y="325" class="a">stories</text><text x="564" y="325" class="a">with</text><text x="624" y="325" class="a">optional</text><text x="732" y="325" class="a">query</text><text x="24" y="350" class="a">find</text><text x="84" y="350" class="a">[options]</text><text x="204" y="350" class="a">[SEARC]</text><text x="384" y="350" class="a">[DEPRECATED]</text><text x="540" y="350" class="a">search</text><text x="624" y="350" class="a">stories</text><text x="720" y="350" class="a">with</text><text x="780" y="350" class="a">optional</text><text x="888" y="350" class="a">query</text><text x="24" y="375" class="a">story|st</text><text x="132" y="375" class="a">[options]</text><text x="384" y="375" class="a">view</text><text x="444" y="375" class="a">or</text><text x="480" y="375" class="a">manipulate</text><text x="612" y="375" class="a">stories</text><text x="24" y="400" class="a">create|c</text><text x="132" y="400" class="a">[options]</text><text x="384" y="400" class="a">create</text><text x="468" y="400" class="a">a</text><text x="492" y="400" class="a">story</text><text x="24" y="425" class="a">members|m</text><text x="144" y="425" class="a">[options]</text><text x="384" y="425" class="a">list</text><text x="444" y="425" class="a">members</text><text x="24" y="450" class="a">workflows|wf</text><text x="180" y="450" class="a">[options]</text><text x="384" y="450" class="a">list</text><text x="444" y="450" class="a">workflows</text><text x="564" y="450" class="a">and</text><text x="612" y="450" class="a">their</text><text x="684" y="450" class="a">states</text><text x="24" y="475" class="a">epics|e</text><text x="120" y="475" class="a">[options]</text><text x="384" y="475" class="a">list</text><text x="444" y="475" class="a">epics</text><text x="516" y="475" class="a">and</text><text x="564" y="475" class="a">their</text><text x="636" y="475" class="a">states</text><text x="24" y="500" class="a">projects|p</text><text x="156" y="500" class="a">[options]</text><text x="384" y="500" class="a">list</text><text x="444" y="500" class="a">projects</text><text x="552" y="500" class="a">and</text><text x="600" y="500" class="a">their</text><text x="672" y="500" class="a">states</text><text x="24" y="525" class="a">workspace|w</text><text x="168" y="525" class="a">[NAME]</text><text x="252" y="525" class="a">[options]</text><text x="384" y="525" class="a">list</text><text x="444" y="525" class="a">stories</text><text x="540" y="525" class="a">matching</text><text x="648" y="525" class="a">saved</text><text x="720" y="525" class="a">workspace</text><text x="840" y="525" class="a">query</text><text x="24" y="550" class="a">help</text><text x="84" y="550" class="a">[cmd]</text><text x="384" y="550" class="a">display</text><text x="480" y="550" class="a">help</text><text x="540" y="550" class="a">for</text><text x="588" y="550" class="a">[cmd]</text></g><g transform="translate(79920)"><text x="0" y="0" class="a">shory</text><text x="72" y="0" class="a">--help</text><text x="0" y="25" class="a">/bin/sh:</text><text x="108" y="25" class="a">1:</text><text x="144" y="25" class="a">shory:</text><text x="228" y="25" class="a">not</text><text x="276" y="25" class="a">found</text><text x="0" y="50" class="a">short</text><text x="72" y="50" class="a">--help</text><text x="0" y="75" class="a">Usage:</text><text x="84" y="75" class="a">short</text><text x="156" y="75" class="a">[options]</text><text x="276" y="75" class="a">[command]</text><text x="0" y="125" class="a">A</text><text x="24" y="125" class="a">community-driven</text><text x="228" y="125" class="a">command</text><text x="324" y="125" class="a">line</text><text x="384" y="125" class="a">tool</text><text x="444" y="125" class="a">for</text><text x="492" y="125" class="a">viewing,</text><text x="600" y="125" class="a">creating,</text><text x="720" y="125" class="a">and</text><text x="768" y="125" class="a">updating</text><text x="876" y="125" class="a">shortcut.com</text><text x="1032" y="125" class="a">stories</text><text x="0" y="175" class="a">Options:</text><text x="24" y="200" class="a">-V,</text><text x="72" y="200" class="a">--version</text><text x="384" y="200" class="a">output</text><text x="468" y="200" class="a">the</text><text x="516" y="200" class="a">version</text><text x="612" y="200" class="a">number</text><text x="24" y="225" class="a">-h,</text><text x="72" y="225" class="a">--help</text><text x="384" y="225" class="a">output</text><text x="468" y="225" class="a">usage</text><text x="540" y="225" class="a">information</text><text x="0" y="275" class="a">Commands:</text><text x="24" y="300" class="a">install</text><text x="120" y="300" class="a">[options]</text><text x="384" y="300" class="a">install</text><text x="480" y="300" class="a">and</text><text x="528" y="300" class="a">configure</text><text x="648" y="300" class="a">API</text><text x="696" y="300" class="a">access</text><text x="24" y="325" class="a">search|s</text><text x="132" y="325" class="a">[options]</text><text x="252" y="325" class="a">[SEARC]</text><text x="384" y="325" class="a">search</text><text x="468" y="325" class="a">stories</text><text x="564" y="325" class="a">with</text><text x="624" y="325" class="a">optional</text><text x="732" y="325" class="a">query</text><text x="24" y="350" class="a">find</text><text x="84" y="350" class="a">[options]</text><text x="204" y="350" class="a">[SEARC]</text><text x="384" y="350" class="a">[DEPRECATED]</text><text x="540" y="350" class="a">search</text><text x="624" y="350" class="a">stories</text><text x="720" y="350" class="a">with</text><text x="780" y="350" class="a">optional</text><text x="888" y="350" class="a">query</text><text x="24" y="375" class="a">story|st</text><text x="132" y="375" class="a">[options]</text><text x="384" y="375" class="a">view</text><text x="444" y="375" class="a">or</text><text x="480" y="375" class="a">manipulate</text><text x="612" y="375" class="a">stories</text><text x="24" y="400" class="a">create|c</text><text x="132" y="400" class="a">[options]</text><text x="384" y="400" class="a">create</text><text x="468" y="400" class="a">a</text><text x="492" y="400" class="a">story</text><text x="24" y="425" class="a">members|m</text><text x="144" y="425" class="a">[options]</text><text x="384" y="425" class="a">list</text><text x="444" y="425" class="a">members</text><text x="24" y="450" class="a">workflows|wf</text><text x="180" y="450" class="a">[options]</text><text x="384" y="450" class="a">list</text><text x="444" y="450" class="a">workflows</text><text x="564" y="450" class="a">and</text><text x="612" y="450" class="a">their</text><text x="684" y="450" class="a">states</text><text x="24" y="475" class="a">epics|e</text><text x="120" y="475" class="a">[options]</text><text x="384" y="475" class="a">list</text><text x="444" y="475" class="a">epics</text><text x="516" y="475" class="a">and</text><text x="564" y="475" class="a">their</text><text x="636" y="475" class="a">states</text><text x="24" y="500" class="a">projects|p</text><text x="156" y="500" class="a">[options]</text><text x="384" y="500" class="a">list</text><text x="444" y="500" class="a">projects</text><text x="552" y="500" class="a">and</text><text x="600" y="500" class="a">their</text><text x="672" y="500" class="a">states</text><text x="24" y="525" class="a">workspace|w</text><text x="168" y="525" class="a">[NAME]</text><text x="252" y="525" class="a">[options]</text><text x="384" y="525" class="a">list</text><text x="444" y="525" class="a">stories</text><text x="540" y="525" class="a">matching</text><text x="648" y="525" class="a">saved</text><text x="720" y="525" class="a">workspace</text><text x="840" y="525" class="a">query</text><text x="24" y="550" class="a">help</text><text x="84" y="550" class="a">[cmd]</text><text x="384" y="550" class="a">display</text><text x="480" y="550" class="a">help</text><text x="540" y="550" class="a">for</text><text x="588" y="550" class="a">[cmd]</text></g></g></g></svg>